<svg width="607" height="65" fill="none" xmlns="http://www.w3.org/2000/svg"><path fill-rule="evenodd" clip-rule="evenodd" d="M73.549 26.227l.416 2.163s1.202 5.986 1.452 7.24h-5.19c.52-1.44 2.49-7.013 2.49-7.013-.037.068.514-1.45.832-2.39zm-.442-6.763c-1.497 0-2.62.442-3.28 2.082l-9.282 22.988h6.567s1.074-3.094 1.316-3.772c.717 0 7.095.014 8.005.014.193.875.761 3.757.761 3.757H83l-5.063-25.07h-4.83zm-45.382-.002l-6.12 17.098-.653-3.474c-1.524-4.26-4.823-8.73-8.666-10.54l5.599 21.956 6.618-.004 9.842-25.036h-6.62zm9.157-.024L32.97 44.526h6.25l3.914-25.089h-6.252zM56.298 19c-6.185 0-10.53 3.407-10.568 8.278-.04 3.61 3.107 5.621 5.473 6.82 2.442 1.227 3.257 2.015 3.249 3.112-.024 1.682-1.953 2.447-3.746 2.447-2.5 0-3.832-.378-5.88-1.31l-.812-.4-.875 5.614c1.462.699 4.163 1.304 6.97 1.335 6.563 0 10.834-3.367 10.885-8.567.025-2.863-1.645-5.029-5.255-6.817-2.18-1.163-3.528-1.934-3.508-3.113.002-1.04 1.131-2.157 3.583-2.157 2.047-.035 3.52.452 4.679.964l.558.289.85-5.44C60.666 19.55 58.716 19 56.297 19h.001z" fill="#fff"/><path fill-rule="evenodd" clip-rule="evenodd" d="M15.929 19.449H5.845l-.06.431c7.841 2.078 13.014 7.18 15.167 13.212l-2.191-11.53c-.377-1.586-1.474-2.057-2.832-2.113z" fill="#BFBFBF"/><path fill-rule="evenodd" clip-rule="evenodd" d="M150.356 50.925a1.4 1.4 0 0 0-.295.465 1.59 1.59 0 0 0-.108.595c0 .217.036.415.108.596.071.18.17.334.295.463.125.13.274.23.446.302.172.072.358.108.559.108.22 0 .425-.036.614-.108a1.47 1.47 0 0 0 .477-.29l.472.801a2.407 2.407 0 0 1-.598.355 2.496 2.496 0 0 1-.965.184c-.348 0-.669-.062-.965-.184a2.313 2.313 0 0 1-1.27-1.27 2.468 2.468 0 0 1-.183-.957c0-.344.061-.663.183-.957a2.31 2.31 0 0 1 1.27-1.27c.296-.123.617-.184.965-.184.347 0 .669.061.965.184.221.092.421.21.598.355l-.472.8a1.468 1.468 0 0 0-.477-.289 1.712 1.712 0 0 0-.614-.108c-.201 0-.387.036-.559.108a1.32 1.32 0 0 0-.446.301zm-25.935-.842a1.7 1.7 0 0 1 .366.577c.086.223.129.469.129.737v2.88h-.954v-2.55c0-.386-.089-.683-.266-.89-.177-.207-.426-.311-.747-.311-.154 0-.3.026-.436.079-.136.053-.255.13-.357.232a1.14 1.14 0 0 0-.243.38 1.38 1.38 0 0 0-.091.52v2.54h-.954v-2.55c0-.386-.088-.683-.266-.89-.177-.207-.426-.311-.747-.311-.155 0-.3.026-.436.079-.137.053-.256.13-.357.232a1.14 1.14 0 0 0-.243.38c-.06.152-.091.325-.091.52v2.54h-.954v-4.584h.945v.56a1.437 1.437 0 0 1 .632-.54c.118-.051.237-.087.356-.108.12-.02.236-.031.348-.031.333 0 .629.073.888.218.259.145.464.345.616.6a1.5 1.5 0 0 1 .331-.404c.128-.107.262-.19.402-.251.141-.061.285-.103.432-.127.147-.024.288-.036.425-.036.257 0 .494.045.711.134.216.09.403.214.561.375zm4.994 2.486a1.4 1.4 0 0 1-.277.464 1.285 1.285 0 0 1-.981.42 1.263 1.263 0 0 1-.995-.433 1.408 1.408 0 0 1-.268-.466 1.698 1.698 0 0 1-.094-.569c0-.2.031-.39.094-.57a1.41 1.41 0 0 1 .268-.466c.115-.132.257-.237.424-.315.168-.079.358-.118.571-.118a1.288 1.288 0 0 1 .981.421c.119.131.211.286.277.464.066.179.099.373.099.584 0 .21-.033.405-.099.584zm.037-2.32v-.556h.982v4.584h-.982v-.55a1.74 1.74 0 0 1-.582.487 1.769 1.769 0 0 1-.831.182 2.167 2.167 0 0 1-1.596-.68 2.334 2.334 0 0 1-.479-.763 2.643 2.643 0 0 1-.173-.968c0-.35.058-.674.173-.969.116-.295.276-.549.479-.763a2.167 2.167 0 0 1 1.596-.68c.323 0 .6.062.831.185.232.123.426.286.582.49zm5.491 1.729c.276.218.414.524.414.916 0 .22-.047.422-.139.605a1.353 1.353 0 0 1-.399.473 1.93 1.93 0 0 1-.643.31 3.15 3.15 0 0 1-.866.11 4.48 4.48 0 0 1-.404-.022 3.516 3.516 0 0 1-1.014-.265 2.422 2.422 0 0 1-.512-.302l.456-.751a1.948 1.948 0 0 0 .589.328c.12.042.253.077.399.102.146.026.311.039.495.039.338 0 .593-.05.765-.151.173-.1.259-.237.259-.41 0-.13-.063-.238-.188-.322-.125-.084-.323-.146-.592-.184l-.469-.062c-.501-.07-.88-.22-1.139-.448-.258-.228-.387-.527-.387-.897 0-.226.043-.43.129-.612a1.27 1.27 0 0 1 .371-.462c.161-.126.356-.223.585-.291.228-.069.486-.103.774-.103.354 0 .687.042 1 .126.313.085.587.204.821.357l-.422.78a2.758 2.758 0 0 0-.587-.259 3.4 3.4 0 0 0-.387-.095 2.261 2.261 0 0 0-.415-.038c-.27 0-.479.05-.627.15a.457.457 0 0 0-.223.395c0 .08.019.147.059.2a.446.446 0 0 0 .157.135.93.93 0 0 0 .234.083c.091.021.188.04.292.055l.464.072c.492.074.875.22 1.15.438zm6.443-.385c.025-.166.069-.319.131-.457a1.25 1.25 0 0 1 .242-.359c.099-.1.216-.178.352-.232a1.26 1.26 0 0 1 .467-.081c.313 0 .568.099.765.296.198.198.323.476.376.833h-2.333zm2.744-1.352a1.93 1.93 0 0 0-.672-.492 2.087 2.087 0 0 0-.861-.175c-.332 0-.634.058-.908.175-.274.116-.51.28-.707.492-.197.212-.35.467-.46.763a2.824 2.824 0 0 0-.164.981c0 .364.056.694.169.99.112.297.27.55.474.76.203.211.446.374.728.489.281.115.591.172.929.172.341 0 .666-.048.974-.144.308-.095.6-.263.876-.502l-.489-.713a2.17 2.17 0 0 1-.622.357 1.93 1.93 0 0 1-.678.127c-.16 0-.313-.023-.46-.068a1.193 1.193 0 0 1-.704-.569 1.49 1.49 0 0 1-.174-.53h3.324a3.174 3.174 0 0 0 .019-.374 2.9 2.9 0 0 0-.158-.978 2.317 2.317 0 0 0-.436-.76zm12.997 2.328a1.4 1.4 0 0 1-.277.464 1.285 1.285 0 0 1-.981.42 1.267 1.267 0 0 1-.995-.433 1.408 1.408 0 0 1-.268-.466 1.698 1.698 0 0 1-.094-.569c0-.2.031-.39.094-.57a1.41 1.41 0 0 1 .268-.466c.116-.132.257-.237.425-.315.167-.079.357-.118.57-.118a1.288 1.288 0 0 1 .981.421c.119.131.211.286.277.464.066.179.099.373.099.584 0 .21-.033.405-.099.584zm.038-2.32v-.556h.981v4.584h-.981v-.55a1.748 1.748 0 0 1-.583.487 1.767 1.767 0 0 1-.83.182 2.168 2.168 0 0 1-1.597-.68 2.315 2.315 0 0 1-.478-.763 2.622 2.622 0 0 1-.174-.968c0-.35.058-.674.174-.969a2.32 2.32 0 0 1 .478-.763 2.168 2.168 0 0 1 1.597-.68c.322 0 .599.062.83.185.232.123.426.286.583.49zm-18.015 3.114c.106-.04.205-.087.3-.139l.336.837a3.26 3.26 0 0 1-.42.201c-.227.09-.483.134-.767.134-.51 0-.907-.144-1.19-.433-.284-.289-.425-.738-.425-1.346v-2.015h-.897v-.908h.897v-1.388h.986v1.388h1.575v.908h-1.575v1.995c0 .153.018.284.056.393a.728.728 0 0 0 .153.265.577.577 0 0 0 .225.15.79.79 0 0 0 .279.048 1.3 1.3 0 0 0 .467-.09zm8.858-3.79c.15 0 .286.011.406.032.083.014.162.036.241.061l-.29.957a1.888 1.888 0 0 0-.582-.097c-.157 0-.3.027-.432.081a.91.91 0 0 0-.338.24 1.149 1.149 0 0 0-.221.387 1.59 1.59 0 0 0-.08.521v2.522h-.9v-4.583h.891v.601c.15-.22.336-.466.559-.568.222-.102.471-.153.746-.153zm13.639 0c.15 0 .285.011.406.032.082.014.162.036.241.061l-.29.957a1.873 1.873 0 0 0-.583-.097c-.156 0-.3.027-.431.081a.91.91 0 0 0-.338.24 1.132 1.132 0 0 0-.221.387 1.59 1.59 0 0 0-.08.521v2.522h-.9v-4.583h.891v.601c.15-.22.336-.466.558-.568a1.77 1.77 0 0 1 .747-.153zm4.545 2.995a1.4 1.4 0 0 1-.277.465 1.295 1.295 0 0 1-.981.42 1.277 1.277 0 0 1-.996-.433 1.406 1.406 0 0 1-.267-.466 1.698 1.698 0 0 1-.094-.569c0-.2.031-.39.094-.57.062-.178.152-.333.267-.466a1.278 1.278 0 0 1 .996-.433 1.298 1.298 0 0 1 .981.421c.119.131.211.286.277.464.066.179.098.373.098.584 0 .21-.032.405-.098.584zm.037-4.737v2.417a1.757 1.757 0 0 0-.582-.49 1.747 1.747 0 0 0-.83-.184 2.168 2.168 0 0 0-1.597.68 2.32 2.32 0 0 0-.478.762 2.625 2.625 0 0 0-.174.969c0 .35.058.674.174.968.115.296.275.55.478.764a2.168 2.168 0 0 0 1.597.68 1.78 1.78 0 0 0 .83-.183 1.72 1.72 0 0 0 .582-.488v.55h.982v-6.445h-.982zm-22.011-4.183c4.323-3.574 7.086-9.032 7.086-15.147s-2.763-11.573-7.086-15.147A16.85 16.85 0 0 1 152.826 11C162.311 11 170 18.835 170 28.501c0 9.665-7.689 17.501-17.174 17.501a16.85 16.85 0 0 1-8.608-2.354zm-3.436-30.294c-4.323 3.574-7.086 9.032-7.086 15.147s2.763 11.573 7.086 15.147a16.85 16.85 0 0 1-8.608 2.354c-9.485 0-17.174-7.836-17.174-17.501C115 18.835 122.689 11 132.174 11c3.137 0 6.077.857 8.608 2.354zm1.718 1.162c4.159 3.193 6.848 8.27 6.848 13.985 0 5.716-2.689 10.791-6.848 13.985-4.159-3.194-6.848-8.27-6.848-13.985 0-5.716 2.689-10.792 6.848-13.985zM202 10v45h42v-7.094h-4.943L236.43 44.8l-2.608 3.117-16.607-.037V33.568h-5.382l6.631-16.124h6.457l2.268 5.517v-5.517h7.97l1.375 4.133 1.38-4.134H244v1.75h-4.835l-2.601 7.747-2.585-7.728-5.024-.019v12.455l-5.14-12.453h-4.128l-5.211 12.572h3.574l.004-.01.979-2.508h5.326l.981 2.514.002.004h3.662l-.001-.002h3.112v-8.636l2.998 8.636h2.839l2.937-8.606v8.635l1.53-.015 1.581-.014v.016V10h-42zm19.697 12.426l1.561 4.002h-3.124l1.563-4.002zm19.207 17.354L244 36.235v7.122l-3.096-3.577zM244 33.53v.038h-4.113l-3.345 3.95-3.334-3.95h-14.204v12.544h14.056l3.391-4.028 3.427 4.028H244v-.179l-5.392-6.12L244 33.63v-.099zm-21.772 2.898h6.733v-2.841l5.46 6.227-5.46 6.24V43.18h-6.733v-1.933h6.572v-2.85h-6.572v-1.968zM303 6c14.912 0 27 11.864 27 26.5S317.912 59 303 59s-27-11.864-27-26.5S288.088 6 303 6zm-2.425 31.351l-.021-15.4h2.973v14.984c0 .144.018.27.211.344l2.586.987-1.166 2.974-3.029-1.258c-1.149-.477-1.552-1.169-1.554-2.63zm-5.615-6.89l-8.288 3.506a4.601 4.601 0 0 1-.02-.425c0-2.574 2.125-4.66 4.747-4.66 1.419 0 2.692.611 3.561 1.58zm-3.561-5.063c3.911 0 7.19 2.656 8.067 6.23l-3.345 1.436v-.007l-3.422 1.475-8.207 3.523a7.999 7.999 0 0 1-1.39-4.513c0-4.498 3.714-8.144 8.297-8.144zm5.798 13.97c-2.971 2.767-6.901 3.038-10.355.98l1.952-2.911c1.965 1.153 3.939.966 5.922-.562l2.481 2.492zm14.572-2.276l-1.814 3.09c-2.192-1.476-3.631-3.953-3.631-6.76 0-2.604 1.239-4.923 3.169-6.424l1.92 3.054a4.592 4.592 0 0 0-1.476 3.37c0 1.493.717 2.82 1.832 3.67zm1.301-8.044l-1.536-3.219a8.459 8.459 0 0 1 3.138-.6c3.93 0 7.223 2.665 8.111 6.253l-3.679.302c-.675-1.758-2.404-3.01-4.432-3.01a4.81 4.81 0 0 0-1.602.274zm6.332 4.6l3.61.111c-.18 4.369-3.844 7.857-8.34 7.857a8.486 8.486 0 0 1-2.596-.406l1.443-3.28c.369.091.755.14 1.153.14 2.539 0 4.61-1.96 4.73-4.423zm58.492 10.266c-9.95-.003-18.012-7.783-18.014-17.385.002-9.604 8.064-17.385 18.014-17.389 9.952.004 18.015 7.785 18.017 17.389-.002 9.602-8.065 17.382-18.017 17.385zM387.11 7.57h-9.26C366.962 7.567 358 15.4 358 26.727c0 10.364 8.962 18.878 19.85 18.828h9.26c10.759.05 20.579-8.467 20.579-18.828 0-11.329-9.82-19.16-20.579-19.157zm-20.635 18.96c.01 4.694 3.048 8.693 7.33 10.283V16.244c-4.282 1.59-7.32 5.592-7.33 10.285zm15.505-10.286v20.573c4.285-1.59 7.328-5.59 7.335-10.287-.007-4.696-3.05-8.7-7.335-10.286zm22.659 42.1c-.693 0-1.066-.648-1.066-1.033v-2.46c.28-.232.6-.476.983-.476.807 0 1.655.91 1.655 2.004 0 .902-.465 1.965-1.572 1.965zm.476-4.516c-.569 0-1.128.385-1.542.73v-3.696c0-.081-.02-.142-.082-.142-.032 0-.114.05-.228.111a6.624 6.624 0 0 1-1.065.436v.162c.392.111.548.131.548.79v4.353c0 .618-.052 1.205-.144 1.802l.216.111.31-.232c.27.111.673.354 1.438.354 1.48 0 2.472-1.326 2.472-2.652 0-1.103-.723-2.127-1.923-2.127zm-43.113 4.303c-.507 0-1.076-.091-1.076-.87v-5.508c.187-.01.382-.04.807-.04 1.996 0 3.237 1.367 3.237 3.26 0 1.508-.733 3.158-2.968 3.158zm-.03-6.742c2.678 0 4.136 1.75 4.136 3.543 0 1.003-.599 3.523-4.261 3.523-.527 0-1.014-.02-1.5-.02-.465 0-.92.01-1.385.02v-.263c.619-.061.92-.081.95-.77v-4.91c0-.91-.485-.85-.95-.86v-.263c.403.019.816.019 1.22.019.434 0 1.024-.02 1.79-.02zm6.019 6.468c0 .335.228.335.518.335h.175v.263c-.352 0-.714-.02-1.085-.02-.373 0-.746.01-1.128.02v-.263h.197c.289 0 .496 0 .496-.335v-2.743c0-.445-.155-.507-.539-.708v-.162c.487-.143 1.067-.334 1.107-.365a.378.378 0 0 1 .187-.05c.051 0 .072.06.072.142v3.886zm-.413-5.587a.524.524 0 0 1-.507-.507c0-.253.248-.487.507-.487.268 0 .507.214.507.487a.511.511 0 0 1-.507.507zm5.896 5.587c0 .335.227.335.517.335h.186v.263c-.363 0-.725-.02-1.096-.02-.373 0-.746.01-1.118.02v-.263h.186c.29 0 .496 0 .496-.335v-2.621c0-.578-.36-.86-.95-.86-.331 0-.859.263-1.202.485v2.996c0 .335.229.335.519.335h.186v.263c-.362 0-.725-.02-1.097-.02s-.745.01-1.117.02v-.263h.187c.29 0 .496 0 .496-.335v-2.682c0-.375-.114-.476-.599-.668v-.192c.444-.142.867-.274 1.364-.487.031 0 .061.02.061.101v.659c.591-.415 1.098-.76 1.792-.76.878 0 1.189.628 1.189 1.418v2.611zm2.709-3.704c.579 0 .9.415.9.93 0 .122-.03.254-.289.254h-1.8c.124-.73.558-1.184 1.189-1.184zm.3 3.847c.57 0 1.015-.304 1.397-.678l.145.141c-.476.618-1.066 1.144-1.913 1.144-1.646 0-1.976-1.56-1.976-2.207 0-1.985 1.365-2.572 2.088-2.572.839 0 1.739.516 1.749 1.59 0 .061 0 .12-.01.182l-.094.061h-2.905c-.022.092-.022.243 0 .587.06.962.693 1.752 1.519 1.752zm4.666-4.172c.259 0 .589.172.589.537 0 .273-.196.517-.486.517-.321 0-.321-.244-.683-.244-.176 0-.755.233-.755.841v2.378c0 .335.207.335.496.335h.579v.263c-.569-.01-1.002-.02-1.447-.02-.424 0-.858.01-1.231.02v-.263h.28c.288 0 .495 0 .495-.335v-2.844c0-.314-.382-.375-.538-.456v-.151c.755-.314 1.169-.578 1.264-.578.06 0 .091.03.091.132v.911h.023c.257-.395.692-1.043 1.323-1.043zm1.613.992c0 1.186 2.4.82 2.4 2.41 0 .668-.548 1.377-1.78 1.377-.413 0-.9-.142-1.261-.344l-.114-1.164.186-.051c.135.668.548 1.235 1.304 1.235.609 0 .836-.364.836-.718 0-1.195-2.254-.81-2.254-2.44 0-.568.466-1.297 1.604-1.297.33 0 .775.092 1.178.294l.073 1.032h-.238c-.103-.637-.465-1.002-1.127-1.002-.415 0-.807.233-.807.669zm9.433 3.463c1.024 0 1.872-.688 2.079-1.752l.238.061-.238 1.478c-.434.264-1.603.537-2.286.537-2.42 0-3.95-1.529-3.95-3.807 0-2.075 1.892-3.564 3.919-3.564.838 0 1.645.264 2.441.537l.103 1.448h-.258c-.197-1.184-1.055-1.66-2.213-1.66-1.19 0-2.918.779-2.918 3.209 0 2.045 1.491 3.513 3.083 3.513zm4.2-.426c0 .335.228.335.517.335h.175v.263c-.35 0-.713-.02-1.085-.02s-.745.01-1.128.02v-.263h.196c.29 0 .498 0 .498-.335V52.22c0-.659-.155-.679-.548-.79v-.162a6.69 6.69 0 0 0 1.065-.436c.113-.06.196-.111.227-.111.062 0 .083.061.083.142v6.995zm5.12.041c0 .183.114.193.289.193.125 0 .28-.01.415-.01v.213c-.446.04-1.294.253-1.49.313l-.052-.03v-.82c-.62.496-1.097.85-1.832.85-.558 0-1.137-.354-1.137-1.204v-2.592c0-.264-.041-.517-.619-.567v-.193c.372-.01 1.198-.07 1.333-.07.115 0 .115.07.115.293v2.611c0 .305 0 1.175.899 1.175.352 0 .817-.263 1.251-.617V54.72c0-.202-.497-.313-.868-.415v-.182c.93-.06 1.51-.141 1.613-.141.083 0 .083.07.083.182v3.735zm94.699-20.559h-1.378c.007-.441.087-.804.141-1.194-.028-.102-.184.25-.283.385-.131.178-.332.436-.53.577-1.02.732-3.041.523-3.747-.346-.41-.505-.522-1.213-.53-1.926-.041-3.69 2.245-6.678 5.974-5.393.225-1.14.399-2.337.53-3.582h1.52c-.61 3.779-1.431 7.326-1.697 11.479zm-8.872-2.89c-.153 1.042-.344 1.828-.354 2.89h-1.555c.509-2.591.946-5.261 1.308-8.012h1.343c-.116.387-.123.893-.248 1.271.437-.736 1.556-1.964 2.899-1.233-.1.353-.133.78-.212 1.156-2.379-.733-2.856 1.705-3.181 3.929zm-2.758-.808c-.192 1.228-.375 2.333-.388 3.698h-1.308c-.021-.472.041-.855.106-1.233-.627 1.093-2.436 1.889-3.924 1.194-.772-.36-1.176-1.653-.813-2.966.541-1.96 2.6-2.418 5.125-2.157.113-.338.267-.799.177-1.232-.269-1.305-3.062-.553-3.959-.308.093-.438.208-.852.283-1.31 1.799-.057 5.013-.805 5.125 1.31.05.922-.259 1.958-.424 3.004zm-7.494 3.466c-1.985.748-4.437.642-4.984-1.31-.467-1.666.194-4.316 1.202-5.469 1.03-1.177 2.973-1.404 5.02-1.04-.054.443-.139.852-.177 1.31-1.248-.475-2.813-.616-3.606.231-.574.614-.946 1.968-1.025 3.081-.035.496.001 1.147.141 1.541.483 1.357 2.557 1.038 3.642.424-.078.403-.125.84-.213 1.232zm-7.246-4.93c-.473 1.494-.565 3.6-.778 5.162h-1.52c.46-2.632.944-5.237 1.273-8.012h1.343c-.09.441-.136.93-.247 1.348.491-.939 1.55-1.941 2.898-1.348-.041.417-.157.754-.177 1.194-1.426-.555-2.415.462-2.792 1.656zm-2.722.848a80.643 80.643 0 0 0-4.984 0c-.255 1.182-.25 2.544.53 3.081 1.033.712 2.778.14 3.782-.27-.066.441-.17.842-.212 1.31-2.439.647-5.488.743-5.762-1.926-.192-1.87.464-3.924 1.273-4.853.66-.758 1.588-1.102 2.686-1.194 1.253-.105 2.484.178 2.828 1.271.261.828-.037 1.742-.141 2.58zm-9.297 4.082c-.956.564-3.223.843-3.57-.616-.307 1.387-.452 2.949-.672 4.43h-1.52c.682-3.802 1.329-7.643 1.874-11.594h1.308c-.012.257-.095.436-.106.693v.007c.68-.598 2.248-1.227 3.534-.7 2.648 1.083 1.126 6.618-.848 7.78zm-8.059.232c.484-2.567.937-5.167 1.272-7.896-.003-.055-.006-.11.036-.116h1.52c-.525 2.574-.943 5.264-1.308 8.012h-1.52zm-3.252 0c.272-1.886.626-3.683.919-5.547-1.42-.147-3.19-.078-4.667-.039-.357 1.793-.611 3.699-.883 5.586h-1.732c.678-3.678 1.23-7.493 1.838-11.248h1.697c-.285 1.475-.491 3.035-.778 4.507 1.519.123 3.127.057 4.701.039.246-1.505.49-3.01.707-4.546h1.768c-.696 3.66-1.282 7.437-1.838 11.248h-1.732zm5.054-11.016c.12-.178.296-.29.601-.347.33-.06.566-.021.707.115.446.432.056 1.468-.247 1.695-.193.145-.842.311-1.131 0-.298-.319-.122-1.178.07-1.463zM453.194 16h-7.246c-3.202.165-5.819 1.57-6.575 4.468-.394 1.511-.611 3.171-.919 4.738-1.567 7.966-2.955 16.15-4.454 23.957h56.417c4.362 0 7.356-1.004 8.166-4.776.375-1.752.736-3.737 1.095-5.662 1.403-7.506 2.806-15.011 4.242-22.725h-50.726zM479.6 34.873c-.225 1.998 1.974 1.76 2.757.925.597-.637.75-1.789.884-2.697-1.796-.239-3.454.114-3.641 1.773zm-24.446-4.846l-.051.044c.029-.003.055-.008.051-.044zm-.051.995c-.116.631-.2 1.322-.318 2.041-.116.71-.351 1.431-.283 2.118.157 1.58 2.157 1.594 2.97.655.673-.777 1.232-2.698 1.025-4.237-.239-1.772-2.593-1.643-3.394-.577zm9.226-.848c-1.163.049-1.901 1.032-2.015 1.926h3.571c.323-1.488-.461-1.971-1.556-1.926zm29.517.039c-1.638.2-2.445 2.426-2.404 4.43.023 1.143.532 1.834 1.555 1.81 2.395-.056 2.209-3.681 2.722-5.932-.558-.208-1.111-.401-1.873-.308z" fill="#fff"/><path d="M537.22 40.597V12.84h1.622v27.757h-1.622zm3.538 0V12.84h1.624v27.757h-1.624zm4.128 0V12.84h5.896v27.757h-5.896zm45.404 0V12.84h5.897v27.757h-5.897zm-37.739 0V12.84h1.624v27.757h-1.624zm3.538 0V12.84h1.624v27.757h-1.624zm4.128 0V12.84h4.128v27.757h-4.128zm5.307 0V12.84h1.624v27.757h-1.624zm4.128 0V12.84h4.127v27.757h-4.127zm5.896 0V12.84h1.624v27.757h-1.624zm3.538 0V12.84h4.128v27.757h-4.128zm7.666 0V12.84h1.624v27.757h-1.624zM538 52.866v-9.732h3.97c1.422 0 2.502.23 3.241.688.744.46 1.116 1.125 1.116 1.999 0 .504-.131.934-.395 1.29-.263.357-.65.62-1.161.789.577.133 1.02.383 1.328.748.309.366.464.811.464 1.337 0 .954-.345 1.671-1.033 2.153-.683.477-1.698.72-3.044.728H538zm2.664-4.137v2.333h1.746c.481 0 .85-.096 1.109-.288.258-.196.387-.47.387-.822 0-.811-.458-1.219-1.374-1.223h-1.868zm0-1.538h1.39c.582-.004.996-.098 1.244-.28.248-.183.372-.453.372-.81 0-.41-.134-.703-.402-.882-.268-.182-.701-.274-1.298-.274h-1.306v2.246zm16.731 1.009c0 .95-.2 1.79-.6 2.52a4.132 4.132 0 0 1-1.708 1.692c-.734.392-1.571.588-2.512.588-.942 0-1.777-.19-2.505-.568a4.176 4.176 0 0 1-1.708-1.638c-.405-.708-.618-1.522-.638-2.44v-.548c0-.953.197-1.793.592-2.52.4-.73.969-1.294 1.708-1.691.744-.397 1.589-.595 2.535-.595.937 0 1.772.196 2.505.588a4.162 4.162 0 0 1 1.708 1.678c.41.722.618 1.55.623 2.487v.448zm-2.71-.407c0-.967-.185-1.7-.554-2.2-.365-.503-.888-.755-1.572-.755-1.336 0-2.042.883-2.118 2.647l-.007.716c0 .953.18 1.686.539 2.199.359.512.893.769 1.602.769.673 0 1.191-.252 1.556-.756.364-.503.549-1.228.554-2.172v-.448zm6.748 3.269h4.638v1.804h-7.302v-9.732h2.664v7.928zm12.616-2.32h-4.19v2.32h4.949v1.804h-7.613v-9.732h7.628v1.811h-4.964v2.052h4.19v1.745zm10.673-3.797h-3.317v7.921h-2.665v-7.92h-3.256v-1.812h9.238v1.811zM595 48.2c0 .95-.2 1.79-.6 2.52a4.129 4.129 0 0 1-1.708 1.692c-.733.392-1.571.588-2.512.588-.941 0-1.776-.19-2.505-.568a4.182 4.182 0 0 1-1.708-1.638c-.405-.708-.618-1.522-.638-2.44v-.548c0-.953.198-1.793.592-2.52.4-.73.969-1.294 1.708-1.691.744-.397 1.589-.595 2.536-.595.936 0 1.771.196 2.505.588a4.168 4.168 0 0 1 1.708 1.678c.409.722.617 1.55.622 2.487v.448zm-2.71-.407c0-.967-.185-1.7-.554-2.2-.364-.503-.888-.755-1.571-.755-1.336 0-2.042.883-2.118 2.647l-.008.716c0 .953.18 1.686.539 2.199.359.512.893.769 1.602.769.673 0 1.192-.252 1.556-.756.364-.503.549-1.228.554-2.172v-.448z" fill="#fff"/></svg>